<mxfile host="Electron" agent="Mozilla/5.0 (Windows NT 10.0; Win64; x64) AppleWebKit/537.36 (KHTML, like Gecko) draw.io/25.0.2 Chrome/128.0.6613.186 Electron/32.2.5 Safari/537.36" version="25.0.2">
  <diagram name="Страница — 1" id="3xVPJUQCX9A4Q3XhqSTl">
    <mxGraphModel dx="1159" dy="226" grid="1" gridSize="10" guides="1" tooltips="1" connect="1" arrows="1" fold="1" page="1" pageScale="1" pageWidth="827" pageHeight="1169" math="0" shadow="0">
      <root>
        <mxCell id="0" />
        <mxCell id="1" parent="0" />
        <mxCell id="D_ngLy2UBlQ9_0pgJ2eF-1" value="Вид болезни" style="text;html=1;align=center;verticalAlign=middle;whiteSpace=wrap;rounded=0;" parent="1" vertex="1">
          <mxGeometry x="-70" y="340" width="60" height="30" as="geometry" />
        </mxCell>
        <mxCell id="D_ngLy2UBlQ9_0pgJ2eF-2" value="Вид растения" style="text;html=1;align=center;verticalAlign=middle;whiteSpace=wrap;rounded=0;" parent="1" vertex="1">
          <mxGeometry x="-70" y="370" width="60" height="30" as="geometry" />
        </mxCell>
        <mxCell id="D_ngLy2UBlQ9_0pgJ2eF-3" style="edgeStyle=orthogonalEdgeStyle;rounded=0;orthogonalLoop=1;jettySize=auto;html=1;jumpStyle=arc;" parent="1" source="D_ngLy2UBlQ9_0pgJ2eF-4" target="D_ngLy2UBlQ9_0pgJ2eF-10" edge="1">
          <mxGeometry relative="1" as="geometry">
            <Array as="points">
              <mxPoint x="-20" y="410" />
            </Array>
            <mxPoint x="201" y="385" as="targetPoint" />
          </mxGeometry>
        </mxCell>
        <mxCell id="D_ngLy2UBlQ9_0pgJ2eF-30" style="edgeStyle=orthogonalEdgeStyle;rounded=0;orthogonalLoop=1;jettySize=auto;html=1;" parent="1" source="D_ngLy2UBlQ9_0pgJ2eF-4" target="D_ngLy2UBlQ9_0pgJ2eF-16" edge="1">
          <mxGeometry relative="1" as="geometry">
            <Array as="points">
              <mxPoint x="40" y="490" />
            </Array>
          </mxGeometry>
        </mxCell>
        <mxCell id="D_ngLy2UBlQ9_0pgJ2eF-31" style="edgeStyle=orthogonalEdgeStyle;rounded=0;orthogonalLoop=1;jettySize=auto;html=1;" parent="1" source="D_ngLy2UBlQ9_0pgJ2eF-4" target="D_ngLy2UBlQ9_0pgJ2eF-21" edge="1">
          <mxGeometry relative="1" as="geometry">
            <Array as="points">
              <mxPoint x="40" y="417" />
              <mxPoint x="40" y="580" />
            </Array>
          </mxGeometry>
        </mxCell>
        <mxCell id="D_ngLy2UBlQ9_0pgJ2eF-4" value="Базы данных парника" style="text;html=1;align=center;verticalAlign=middle;whiteSpace=wrap;rounded=0;" parent="1" vertex="1">
          <mxGeometry x="-80" y="402" width="80" height="30" as="geometry" />
        </mxCell>
        <mxCell id="D_ngLy2UBlQ9_0pgJ2eF-5" style="edgeStyle=orthogonalEdgeStyle;rounded=0;orthogonalLoop=1;jettySize=auto;html=1;jumpStyle=arc;entryX=0;entryY=0.5;entryDx=0;entryDy=0;" parent="1" source="D_ngLy2UBlQ9_0pgJ2eF-2" target="D_ngLy2UBlQ9_0pgJ2eF-10" edge="1">
          <mxGeometry relative="1" as="geometry">
            <mxPoint x="290" y="395.0344827586207" as="targetPoint" />
            <Array as="points" />
          </mxGeometry>
        </mxCell>
        <mxCell id="D_ngLy2UBlQ9_0pgJ2eF-6" style="edgeStyle=orthogonalEdgeStyle;rounded=0;orthogonalLoop=1;jettySize=auto;html=1;jumpStyle=arc;entryX=-0.009;entryY=0.117;entryDx=0;entryDy=0;entryPerimeter=0;" parent="1" source="D_ngLy2UBlQ9_0pgJ2eF-1" target="D_ngLy2UBlQ9_0pgJ2eF-10" edge="1">
          <mxGeometry relative="1" as="geometry">
            <mxPoint x="290" y="367.0344827586207" as="targetPoint" />
            <Array as="points" />
          </mxGeometry>
        </mxCell>
        <mxCell id="D_ngLy2UBlQ9_0pgJ2eF-7" style="edgeStyle=orthogonalEdgeStyle;rounded=0;orthogonalLoop=1;jettySize=auto;html=1;jumpStyle=arc;" parent="1" source="D_ngLy2UBlQ9_0pgJ2eF-8" target="D_ngLy2UBlQ9_0pgJ2eF-10" edge="1">
          <mxGeometry relative="1" as="geometry">
            <Array as="points">
              <mxPoint x="350" y="130" />
              <mxPoint x="350" y="130" />
            </Array>
          </mxGeometry>
        </mxCell>
        <mxCell id="D_ngLy2UBlQ9_0pgJ2eF-28" style="edgeStyle=orthogonalEdgeStyle;rounded=0;orthogonalLoop=1;jettySize=auto;html=1;" parent="1" source="D_ngLy2UBlQ9_0pgJ2eF-8" target="D_ngLy2UBlQ9_0pgJ2eF-16" edge="1">
          <mxGeometry relative="1" as="geometry">
            <Array as="points">
              <mxPoint x="350" y="220" />
              <mxPoint x="600" y="220" />
            </Array>
          </mxGeometry>
        </mxCell>
        <mxCell id="D_ngLy2UBlQ9_0pgJ2eF-29" style="edgeStyle=orthogonalEdgeStyle;rounded=0;orthogonalLoop=1;jettySize=auto;html=1;" parent="1" source="D_ngLy2UBlQ9_0pgJ2eF-8" target="D_ngLy2UBlQ9_0pgJ2eF-21" edge="1">
          <mxGeometry relative="1" as="geometry">
            <Array as="points">
              <mxPoint x="350" y="220" />
              <mxPoint x="830" y="220" />
            </Array>
          </mxGeometry>
        </mxCell>
        <mxCell id="D_ngLy2UBlQ9_0pgJ2eF-8" value="&lt;font style=&quot;font-size: 10px;&quot;&gt;Методология по лечению сельскохозяйственных культур&lt;/font&gt;" style="text;html=1;align=center;verticalAlign=middle;whiteSpace=wrap;rounded=0;" parent="1" vertex="1">
          <mxGeometry x="294" y="60" width="120" height="60" as="geometry" />
        </mxCell>
        <mxCell id="D_ngLy2UBlQ9_0pgJ2eF-9" style="edgeStyle=orthogonalEdgeStyle;rounded=0;orthogonalLoop=1;jettySize=auto;html=1;" parent="1" source="D_ngLy2UBlQ9_0pgJ2eF-16" target="D_ngLy2UBlQ9_0pgJ2eF-21" edge="1">
          <mxGeometry relative="1" as="geometry">
            <mxPoint x="800" y="380" as="targetPoint" />
            <Array as="points">
              <mxPoint x="720" y="465" />
              <mxPoint x="720" y="560" />
            </Array>
          </mxGeometry>
        </mxCell>
        <mxCell id="D_ngLy2UBlQ9_0pgJ2eF-18" style="edgeStyle=orthogonalEdgeStyle;rounded=0;orthogonalLoop=1;jettySize=auto;html=1;" parent="1" source="D_ngLy2UBlQ9_0pgJ2eF-10" target="D_ngLy2UBlQ9_0pgJ2eF-16" edge="1">
          <mxGeometry relative="1" as="geometry">
            <Array as="points">
              <mxPoint x="480" y="380" />
              <mxPoint x="480" y="465" />
            </Array>
          </mxGeometry>
        </mxCell>
        <mxCell id="D_ngLy2UBlQ9_0pgJ2eF-10" value="Произвести выборку&lt;div&gt;болезней по растениям&lt;/div&gt;" style="rounded=0;whiteSpace=wrap;html=1;" parent="1" vertex="1">
          <mxGeometry x="290" y="345" width="140" height="80" as="geometry" />
        </mxCell>
        <mxCell id="D_ngLy2UBlQ9_0pgJ2eF-11" value="2" style="text;html=1;align=center;verticalAlign=middle;whiteSpace=wrap;rounded=0;" parent="1" vertex="1">
          <mxGeometry x="384" y="390" width="60" height="30" as="geometry" />
        </mxCell>
        <mxCell id="D_ngLy2UBlQ9_0pgJ2eF-12" style="edgeStyle=orthogonalEdgeStyle;rounded=0;orthogonalLoop=1;jettySize=auto;html=1;jumpStyle=arc;" parent="1" source="D_ngLy2UBlQ9_0pgJ2eF-15" target="D_ngLy2UBlQ9_0pgJ2eF-10" edge="1">
          <mxGeometry relative="1" as="geometry">
            <Array as="points" />
            <mxPoint x="460" y="710" as="sourcePoint" />
          </mxGeometry>
        </mxCell>
        <mxCell id="D_ngLy2UBlQ9_0pgJ2eF-13" value="Список применимых лекарств" style="text;html=1;align=center;verticalAlign=middle;whiteSpace=wrap;rounded=0;" parent="1" vertex="1">
          <mxGeometry x="1000" y="535" width="60" height="50" as="geometry" />
        </mxCell>
        <mxCell id="D_ngLy2UBlQ9_0pgJ2eF-26" style="edgeStyle=orthogonalEdgeStyle;rounded=0;orthogonalLoop=1;jettySize=auto;html=1;jumpStyle=arc;" parent="1" source="D_ngLy2UBlQ9_0pgJ2eF-15" target="D_ngLy2UBlQ9_0pgJ2eF-16" edge="1">
          <mxGeometry relative="1" as="geometry">
            <Array as="points">
              <mxPoint x="360" y="640" />
              <mxPoint x="600" y="640" />
            </Array>
          </mxGeometry>
        </mxCell>
        <mxCell id="D_ngLy2UBlQ9_0pgJ2eF-27" style="edgeStyle=orthogonalEdgeStyle;rounded=0;orthogonalLoop=1;jettySize=auto;html=1;" parent="1" source="D_ngLy2UBlQ9_0pgJ2eF-15" target="D_ngLy2UBlQ9_0pgJ2eF-21" edge="1">
          <mxGeometry relative="1" as="geometry">
            <Array as="points">
              <mxPoint x="360" y="640" />
              <mxPoint x="830" y="640" />
            </Array>
          </mxGeometry>
        </mxCell>
        <mxCell id="D_ngLy2UBlQ9_0pgJ2eF-15" value="Программа" style="text;html=1;align=center;verticalAlign=middle;whiteSpace=wrap;rounded=0;" parent="1" vertex="1">
          <mxGeometry x="330" y="710" width="60" height="30" as="geometry" />
        </mxCell>
        <mxCell id="D_ngLy2UBlQ9_0pgJ2eF-16" value="Произвести выборку&lt;div&gt;лекарств по болезням&lt;/div&gt;" style="rounded=0;whiteSpace=wrap;html=1;" parent="1" vertex="1">
          <mxGeometry x="530" y="425" width="140" height="80" as="geometry" />
        </mxCell>
        <mxCell id="D_ngLy2UBlQ9_0pgJ2eF-17" value="3" style="text;html=1;align=center;verticalAlign=middle;whiteSpace=wrap;rounded=0;" parent="1" vertex="1">
          <mxGeometry x="620" y="475" width="60" height="30" as="geometry" />
        </mxCell>
        <mxCell id="D_ngLy2UBlQ9_0pgJ2eF-19" value="Список болезней растений" style="text;html=1;align=center;verticalAlign=middle;whiteSpace=wrap;rounded=0;" parent="1" vertex="1">
          <mxGeometry x="500" y="300" width="60" height="50" as="geometry" />
        </mxCell>
        <mxCell id="D_ngLy2UBlQ9_0pgJ2eF-23" style="edgeStyle=orthogonalEdgeStyle;rounded=0;orthogonalLoop=1;jettySize=auto;html=1;" parent="1" source="D_ngLy2UBlQ9_0pgJ2eF-21" target="D_ngLy2UBlQ9_0pgJ2eF-13" edge="1">
          <mxGeometry relative="1" as="geometry" />
        </mxCell>
        <mxCell id="D_ngLy2UBlQ9_0pgJ2eF-21" value="Произвести выборку&lt;div&gt;лекарств по растениям&lt;/div&gt;" style="rounded=0;whiteSpace=wrap;html=1;" parent="1" vertex="1">
          <mxGeometry x="760" y="520" width="140" height="80" as="geometry" />
        </mxCell>
        <mxCell id="D_ngLy2UBlQ9_0pgJ2eF-22" value="4" style="text;html=1;align=center;verticalAlign=middle;whiteSpace=wrap;rounded=0;" parent="1" vertex="1">
          <mxGeometry x="850" y="570" width="60" height="30" as="geometry" />
        </mxCell>
        <mxCell id="D_ngLy2UBlQ9_0pgJ2eF-24" value="Список лекарств&lt;div&gt;по болезням&lt;/div&gt;" style="text;html=1;align=center;verticalAlign=middle;whiteSpace=wrap;rounded=0;" parent="1" vertex="1">
          <mxGeometry x="710" y="382" width="60" height="50" as="geometry" />
        </mxCell>
        <mxCell id="02Ht7a5Ba2Lxmbr_AvQF-1" value="" style="edgeStyle=isometricEdgeStyle;endArrow=none;html=1;rounded=0;entryX=0.1;entryY=1.04;entryDx=0;entryDy=0;entryPerimeter=0;" edge="1" parent="1" target="D_ngLy2UBlQ9_0pgJ2eF-19">
          <mxGeometry width="50" height="100" relative="1" as="geometry">
            <mxPoint x="480" y="390" as="sourcePoint" />
            <mxPoint x="497.68" y="358" as="targetPoint" />
            <Array as="points">
              <mxPoint x="487.68" y="370" />
            </Array>
          </mxGeometry>
        </mxCell>
        <mxCell id="02Ht7a5Ba2Lxmbr_AvQF-2" value="" style="edgeStyle=isometricEdgeStyle;endArrow=none;html=1;rounded=0;entryX=0.558;entryY=1.029;entryDx=0;entryDy=0;entryPerimeter=0;" edge="1" parent="1" target="D_ngLy2UBlQ9_0pgJ2eF-24">
          <mxGeometry width="50" height="100" relative="1" as="geometry">
            <mxPoint x="720" y="470" as="sourcePoint" />
            <mxPoint x="740" y="432" as="targetPoint" />
            <Array as="points">
              <mxPoint x="730" y="450" />
            </Array>
          </mxGeometry>
        </mxCell>
      </root>
    </mxGraphModel>
  </diagram>
</mxfile>
